# xmcd CD database file
#
# Track frame offsets:
#	150
#	12981
#	24463
#	41275
#	56811
#	74225
#	90162
#	98276
#	112572
#	129107
#	141709
#	157881
#	171134
#	182957
#	198000
#	213192
#	226149
#	242695
#	252406
#	265976
#	286495
#	297146
#	311849
#	323422
#
# Disc length: 4484 seconds
#
# Revision: 0
# Processed by: cddbd v1.5.2PL0 Copyright (c) Steve Scherf et al.
# Submitted via: CDex 1.51
#
DISCID=44118218
DTITLE=Milt Buckner - Mighty High and Midnight Mood
DYEAR=1900
DGENRE=Jazz
TTITLE0=Mighty High ( Mighty High - 1959 )
TTITLE1=Teach Me Tonight
TTITLE2=Abstraction
TTITLE3=Two Flights Up
TTITLE4=After Hours
TTITLE5=D.T.s
TTITLE6=Organ Grinder's Swing
TTITLE7=Willow Weep For Me
TTITLE8=Burnt Out
TTITLE9=Syncopated Clock
TTITLE10=Castle Rock
TTITLE11=Haunting Me
TTITLE12=I Almost Lost My Mind ( Midnight Mood - 1961 )
TTITLE13=I'm Just A Lucky So and So
TTITLE14=If I Should Lose You
TTITLE15=I've Got The World On A String
TTITLE16=One For My Baby
TTITLE17=Cocktails For Two
TTITLE18=Little White Lies
TTITLE19=There Is No Greater Love
TTITLE20=Love Is The Thing
TTITLE21=Baby, Baby All The Time
TTITLE22=A Sunday Kind Of Love
TTITLE23=Bouncing At Dawn
EXTD=
EXTT0=
EXTT1=
EXTT2=
EXTT3=
EXTT4=
EXTT5=
EXTT6=
EXTT7=
EXTT8=
EXTT9=
EXTT10=
EXTT11=
EXTT12=
EXTT13=
EXTT14=
EXTT15=
EXTT16=
EXTT17=
EXTT18=
EXTT19=
EXTT20=
EXTT21=
EXTT22=
EXTT23=
PLAYORDER=
